<mxfile host="app.diagrams.net" modified="2024-12-06T04:46:22.885Z" agent="Mozilla/5.0 (Macintosh; Intel Mac OS X 10_15_7) AppleWebKit/537.36 (KHTML, like Gecko) Chrome/128.0.0.0 Safari/537.36" etag="mJqrbI3Y6CLQR_2kJNGK" version="21.5.0" type="device">
  <diagram name="skills-rep-side" id="MHWd3YjjwrItnfDWymt-">
    <mxGraphModel dx="350" dy="837" grid="1" gridSize="10" guides="1" tooltips="1" connect="1" arrows="1" fold="1" page="1" pageScale="1" pageWidth="850" pageHeight="1100" background="#ffffff" math="0" shadow="0">
      <root>
        <mxCell id="oUjT0-91Q0FkJpxIbzf2-0" />
        <mxCell id="oUjT0-91Q0FkJpxIbzf2-1" parent="oUjT0-91Q0FkJpxIbzf2-0" />
        <mxCell id="oUjT0-91Q0FkJpxIbzf2-2" value="" style="rounded=0;whiteSpace=wrap;html=1;align=center;fillColor=none;" parent="oUjT0-91Q0FkJpxIbzf2-1" vertex="1">
          <mxGeometry x="60" y="120" width="770" height="450" as="geometry" />
        </mxCell>
        <mxCell id="oUjT0-91Q0FkJpxIbzf2-3" value="&lt;b&gt;&lt;font style=&quot;font-size: 32px;&quot;&gt;Engineer and Project Manager&lt;/font&gt;&lt;/b&gt;" style="text;html=1;resizable=0;points=[];autosize=1;align=left;verticalAlign=top;spacingTop=-4;" parent="oUjT0-91Q0FkJpxIbzf2-1" vertex="1">
          <mxGeometry x="70" y="130" width="480" height="50" as="geometry" />
        </mxCell>
        <mxCell id="oUjT0-91Q0FkJpxIbzf2-4" value="&amp;nbsp; A diagram of how an&lt;b&gt; Engineer Manager&lt;/b&gt; is different&amp;nbsp;from a &lt;b&gt;Project Manager.&lt;/b&gt;" style="text;html=1;resizable=0;points=[];align=left;verticalAlign=middle;labelBackgroundColor=#ffffff;" parent="oUjT0-91Q0FkJpxIbzf2-1" vertex="1" connectable="0">
          <mxGeometry x="69.99676323963354" y="179.9954184106883" as="geometry" />
        </mxCell>
        <mxCell id="oUjT0-91Q0FkJpxIbzf2-5" value="@dougarcuri" style="text;html=1;align=right;verticalAlign=middle;resizable=0;points=[];;autosize=1;fontStyle=1" parent="oUjT0-91Q0FkJpxIbzf2-1" vertex="1">
          <mxGeometry x="730" y="540.9999999999999" width="90" height="20" as="geometry" />
        </mxCell>
        <mxCell id="oUjT0-91Q0FkJpxIbzf2-6" value="v 1.00" style="text;html=1;align=right;verticalAlign=middle;resizable=0;points=[];;autosize=1;" parent="oUjT0-91Q0FkJpxIbzf2-1" vertex="1">
          <mxGeometry x="770" y="130" width="50" height="20" as="geometry" />
        </mxCell>
        <mxCell id="dE7qI7JHcUCAQGgcLiXu-0" value="" style="group;fillColor=none;" parent="oUjT0-91Q0FkJpxIbzf2-1" vertex="1" connectable="0">
          <mxGeometry x="180" y="229.99689783217025" width="609.9968978321702" height="311.00000000000006" as="geometry" />
        </mxCell>
        <mxCell id="oUjT0-91Q0FkJpxIbzf2-8" value="" style="ellipse;whiteSpace=wrap;html=1;aspect=fixed;opacity=40;align=right;rotation=90;strokeWidth=2;" parent="dE7qI7JHcUCAQGgcLiXu-0" vertex="1">
          <mxGeometry x="206.99689783217025" y="1" width="310" height="310" as="geometry" />
        </mxCell>
        <mxCell id="oUjT0-91Q0FkJpxIbzf2-10" value="" style="ellipse;whiteSpace=wrap;html=1;aspect=fixed;opacity=40;align=right;rotation=90;strokeWidth=2;" parent="dE7qI7JHcUCAQGgcLiXu-0" vertex="1">
          <mxGeometry x="16.996897832170248" width="310" height="310" as="geometry" />
        </mxCell>
        <mxCell id="oUjT0-91Q0FkJpxIbzf2-11" value="Delivery" style="text;html=1;strokeColor=none;fillColor=default;align=center;verticalAlign=middle;whiteSpace=wrap;rounded=0;labelBackgroundColor=none;fontSize=34;fontColor=#000000;rotation=0;fontStyle=1" parent="dE7qI7JHcUCAQGgcLiXu-0" vertex="1">
          <mxGeometry x="189.5" y="190" width="157" height="40" as="geometry" />
        </mxCell>
        <mxCell id="oUjT0-91Q0FkJpxIbzf2-12" value="&lt;p style=&quot;line-height: 1.2; margin-top: 0pt; margin-bottom: 0pt;&quot; dir=&quot;ltr&quot;&gt;&lt;/p&gt;&lt;p style=&quot;line-height: 1.2; margin-top: 0pt; margin-bottom: 0pt;&quot; dir=&quot;ltr&quot;&gt;&lt;/p&gt;&lt;p style=&quot;line-height: 1.2; margin-top: 0pt; margin-bottom: 0pt;&quot; dir=&quot;ltr&quot;&gt;&lt;/p&gt;&lt;p style=&quot;line-height: 1.2; margin-top: 0pt; margin-bottom: 0pt;&quot; dir=&quot;ltr&quot;&gt;&lt;/p&gt;&lt;p style=&quot;line-height: 1.2; margin-top: 0pt; margin-bottom: 0pt;&quot; dir=&quot;ltr&quot;&gt;&lt;/p&gt;&lt;p style=&quot;line-height: 1.2; margin-top: 0pt; margin-bottom: 0pt;&quot; dir=&quot;ltr&quot;&gt;&lt;/p&gt;&lt;p style=&quot;line-height: 1.2; margin-top: 0pt; margin-bottom: 0pt;&quot; dir=&quot;ltr&quot;&gt;&lt;/p&gt;&lt;p style=&quot;text-align: left; line-height: 1.2; margin-top: 0pt; margin-bottom: 0pt;&quot; dir=&quot;ltr&quot;&gt;&lt;font style=&quot;font-size: 12px;&quot;&gt;&lt;br&gt;&lt;/font&gt;&lt;/p&gt;&lt;span style=&quot;font-family: Calibri, sans-serif; background-color: transparent; font-variant-numeric: normal; font-variant-east-asian: normal; font-variant-alternates: normal; font-variant-position: normal; vertical-align: baseline;&quot;&gt;&lt;div style=&quot;text-align: left;&quot;&gt;&lt;span style=&quot;background-color: transparent;&quot;&gt;Retention&lt;/span&gt;&lt;/div&gt;&lt;/span&gt;&lt;span style=&quot;font-family: Calibri, sans-serif; background-color: transparent; font-variant-numeric: normal; font-variant-east-asian: normal; font-variant-alternates: normal; font-variant-position: normal; vertical-align: baseline;&quot;&gt;&lt;div style=&quot;text-align: left;&quot;&gt;&lt;span style=&quot;background-color: transparent;&quot;&gt;Hiring Pipeline&lt;/span&gt;&lt;/div&gt;&lt;/span&gt;&lt;span style=&quot;font-family: Calibri, sans-serif; background-color: transparent; font-variant-numeric: normal; font-variant-east-asian: normal; font-variant-alternates: normal; font-variant-position: normal; vertical-align: baseline;&quot;&gt;&lt;div style=&quot;text-align: left;&quot;&gt;&lt;span style=&quot;background-color: transparent;&quot;&gt;Reviews&lt;/span&gt;&lt;/div&gt;&lt;/span&gt;&lt;span style=&quot;font-family: Calibri, sans-serif; background-color: transparent; font-variant-numeric: normal; font-variant-east-asian: normal; font-variant-alternates: normal; font-variant-position: normal; vertical-align: baseline;&quot;&gt;&lt;div style=&quot;text-align: left;&quot;&gt;&lt;span style=&quot;background-color: transparent;&quot;&gt;Sponsoring&lt;/span&gt;&lt;/div&gt;&lt;/span&gt;&lt;span style=&quot;font-family: Calibri, sans-serif; background-color: transparent; font-variant-numeric: normal; font-variant-east-asian: normal; font-variant-alternates: normal; font-variant-position: normal; vertical-align: baseline;&quot;&gt;&lt;div style=&quot;text-align: left;&quot;&gt;&lt;span style=&quot;background-color: transparent;&quot;&gt;Feedback&lt;/span&gt;&lt;/div&gt;&lt;/span&gt;&lt;span style=&quot;font-family: Calibri, sans-serif; background-color: transparent; font-variant-numeric: normal; font-variant-east-asian: normal; font-variant-alternates: normal; font-variant-position: normal; vertical-align: baseline;&quot;&gt;&lt;div style=&quot;text-align: left;&quot;&gt;&lt;span style=&quot;background-color: transparent;&quot;&gt;Coaching&lt;/span&gt;&lt;/div&gt;&lt;/span&gt;&lt;span style=&quot;font-family: Calibri, sans-serif; background-color: transparent; font-variant-numeric: normal; font-variant-east-asian: normal; font-variant-alternates: normal; font-variant-position: normal; vertical-align: baseline;&quot;&gt;&lt;div style=&quot;text-align: left;&quot;&gt;&lt;span style=&quot;background-color: transparent;&quot;&gt;People Indexed&lt;/span&gt;&lt;/div&gt;&lt;/span&gt;&lt;p&gt;&lt;/p&gt;&lt;span id=&quot;docs-internal-guid-f8f91cb1-7fff-f952-4215-82bd4a0a5b76&quot;&gt;&lt;div style=&quot;text-align: left;&quot;&gt;&lt;/div&gt;&lt;/span&gt;" style="text;html=1;align=center;verticalAlign=middle;resizable=0;points=[];autosize=1;strokeColor=none;fillColor=none;rotation=0;" parent="dE7qI7JHcUCAQGgcLiXu-0" vertex="1">
          <mxGeometry x="59.99689783217025" y="86" width="110" height="140" as="geometry" />
        </mxCell>
        <mxCell id="oUjT0-91Q0FkJpxIbzf2-14" value="Environment&lt;br&gt;Career Growth&lt;br&gt;Encouragement&lt;br&gt;Remove blockers" style="text;html=1;align=center;verticalAlign=middle;resizable=0;points=[];autosize=1;strokeColor=none;fillColor=none;rotation=0;" parent="dE7qI7JHcUCAQGgcLiXu-0" vertex="1">
          <mxGeometry x="207.99689783217025" y="101" width="120" height="70" as="geometry" />
        </mxCell>
        <mxCell id="oUjT0-91Q0FkJpxIbzf2-15" value="&lt;p style=&quot;line-height: 1.2; margin-top: 0pt; margin-bottom: 0pt;&quot; dir=&quot;ltr&quot;&gt;&lt;/p&gt;&lt;p style=&quot;line-height: 1.2; margin-top: 0pt; margin-bottom: 0pt;&quot; dir=&quot;ltr&quot;&gt;&lt;/p&gt;&lt;p style=&quot;line-height: 1.2; margin-top: 0pt; margin-bottom: 0pt;&quot; dir=&quot;ltr&quot;&gt;&lt;/p&gt;&lt;p style=&quot;line-height: 1.2; margin-top: 0pt; margin-bottom: 0pt;&quot; dir=&quot;ltr&quot;&gt;&lt;/p&gt;&lt;p style=&quot;line-height: 1.2; margin-top: 0pt; margin-bottom: 0pt;&quot; dir=&quot;ltr&quot;&gt;&lt;/p&gt;&lt;p style=&quot;line-height: 1.2; margin-top: 0pt; margin-bottom: 0pt;&quot; dir=&quot;ltr&quot;&gt;&lt;/p&gt;&lt;p style=&quot;line-height: 1.2; margin-top: 0pt; margin-bottom: 0pt;&quot; dir=&quot;ltr&quot;&gt;&lt;/p&gt;&lt;div&gt;&lt;/div&gt;&lt;span style=&quot;font-family: Calibri, sans-serif; background-color: transparent; font-variant-numeric: normal; font-variant-east-asian: normal; font-variant-alternates: normal; font-variant-position: normal; vertical-align: baseline;&quot;&gt;&lt;div style=&quot;text-align: right;&quot;&gt;&lt;span style=&quot;background-color: transparent;&quot;&gt;Balance team dynamics&lt;/span&gt;&lt;/div&gt;&lt;/span&gt;&lt;span style=&quot;font-family: Calibri, sans-serif; background-color: transparent; font-variant-numeric: normal; font-variant-east-asian: normal; font-variant-alternates: normal; font-variant-position: normal; vertical-align: baseline;&quot;&gt;&lt;div style=&quot;text-align: right;&quot;&gt;&lt;span style=&quot;background-color: transparent;&quot;&gt;Upward communication&lt;/span&gt;&lt;/div&gt;&lt;/span&gt;&lt;span style=&quot;font-family: Calibri, sans-serif; background-color: transparent; font-variant-numeric: normal; font-variant-east-asian: normal; font-variant-alternates: normal; font-variant-position: normal; vertical-align: baseline;&quot;&gt;&lt;div style=&quot;text-align: right;&quot;&gt;&lt;span style=&quot;background-color: transparent;&quot;&gt;Process&lt;/span&gt;&lt;/div&gt;&lt;/span&gt;&lt;span style=&quot;font-family: Calibri, sans-serif; background-color: transparent; font-variant-numeric: normal; font-variant-east-asian: normal; font-variant-alternates: normal; font-variant-position: normal; vertical-align: baseline;&quot;&gt;&lt;div style=&quot;text-align: right;&quot;&gt;&lt;span style=&quot;background-color: transparent;&quot;&gt;Ceremonies&lt;/span&gt;&lt;/div&gt;&lt;/span&gt;&lt;span style=&quot;font-family: Calibri, sans-serif; background-color: transparent; font-variant-numeric: normal; font-variant-east-asian: normal; font-variant-alternates: normal; font-variant-position: normal; vertical-align: baseline;&quot;&gt;&lt;div style=&quot;text-align: right;&quot;&gt;&lt;span style=&quot;background-color: transparent;&quot;&gt;Team &amp;amp; Environment&lt;/span&gt;&lt;/div&gt;&lt;/span&gt;&lt;span style=&quot;font-family: Calibri, sans-serif; background-color: transparent; font-variant-numeric: normal; font-variant-east-asian: normal; font-variant-alternates: normal; font-variant-position: normal; vertical-align: baseline;&quot;&gt;&lt;div style=&quot;text-align: right;&quot;&gt;&lt;span style=&quot;background-color: transparent;&quot;&gt;Facilitate Execution&lt;/span&gt;&lt;/div&gt;&lt;/span&gt;&lt;span style=&quot;font-family: Calibri, sans-serif; background-color: transparent; font-variant-numeric: normal; font-variant-east-asian: normal; font-variant-alternates: normal; font-variant-position: normal; vertical-align: baseline;&quot;&gt;&lt;div style=&quot;text-align: right;&quot;&gt;&lt;span style=&quot;background-color: transparent;&quot;&gt;Project Indexed&lt;/span&gt;&lt;/div&gt;&lt;/span&gt;&lt;p&gt;&lt;/p&gt;&lt;font style=&quot;font-size: 12px;&quot;&gt;&lt;div style=&quot;text-align: right;&quot;&gt;&lt;/div&gt;&lt;span id=&quot;docs-internal-guid-825a013e-7fff-d448-8ae5-689d9141e04f&quot;&gt;&lt;/span&gt;&lt;/font&gt;" style="text;html=1;align=center;verticalAlign=middle;resizable=0;points=[];autosize=1;strokeColor=none;fillColor=none;rotation=0;" parent="dE7qI7JHcUCAQGgcLiXu-0" vertex="1">
          <mxGeometry x="337.99689783217025" y="100" width="150" height="130" as="geometry" />
        </mxCell>
        <mxCell id="oUjT0-91Q0FkJpxIbzf2-19" value="&lt;i&gt;&lt;font&gt;&quot;The Advocacy&quot;&lt;/font&gt;&lt;/i&gt;" style="text;html=1;align=center;verticalAlign=middle;resizable=0;points=[];autosize=1;strokeColor=none;fillColor=default;fontSize=18;fontColor=#000000;rotation=0;" parent="dE7qI7JHcUCAQGgcLiXu-0" vertex="1">
          <mxGeometry x="11.42" y="49.00310216782975" width="150" height="40" as="geometry" />
        </mxCell>
        <mxCell id="oUjT0-91Q0FkJpxIbzf2-17" value="" style="group;rotation=0;" parent="dE7qI7JHcUCAQGgcLiXu-0" vertex="1" connectable="0">
          <mxGeometry y="30.003102167829752" width="230" height="53.99932188134525" as="geometry" />
        </mxCell>
        <mxCell id="oUjT0-91Q0FkJpxIbzf2-18" value="&lt;font style=&quot;font-size: 26px;&quot;&gt;Engineer Manager&lt;/font&gt;" style="text;html=1;strokeColor=none;fillColor=default;align=center;verticalAlign=middle;whiteSpace=wrap;rounded=0;labelBackgroundColor=none;fontSize=26;fontColor=#000000;rotation=0;fontStyle=1" parent="oUjT0-91Q0FkJpxIbzf2-17" vertex="1">
          <mxGeometry width="230" height="30" as="geometry" />
        </mxCell>
        <mxCell id="MEUwHFOiCIK7g4VfZEpr-1" value="&lt;i&gt;&lt;font&gt;&quot;The Delivery&quot;&lt;/font&gt;&lt;/i&gt;" style="text;html=1;align=center;verticalAlign=middle;resizable=0;points=[];autosize=1;strokeColor=none;fillColor=default;fontSize=18;fontColor=#000000;rotation=0;" vertex="1" parent="dE7qI7JHcUCAQGgcLiXu-0">
          <mxGeometry x="355" y="49.00310216782975" width="140" height="40" as="geometry" />
        </mxCell>
        <mxCell id="MEUwHFOiCIK7g4VfZEpr-2" value="" style="group;rotation=0;" vertex="1" connectable="0" parent="dE7qI7JHcUCAQGgcLiXu-0">
          <mxGeometry x="327" y="30.003102167829752" width="230" height="53.99932188134525" as="geometry" />
        </mxCell>
        <mxCell id="MEUwHFOiCIK7g4VfZEpr-3" value="&lt;font style=&quot;font-size: 26px;&quot;&gt;Project Manager&lt;/font&gt;" style="text;html=1;strokeColor=none;fillColor=default;align=center;verticalAlign=middle;whiteSpace=wrap;rounded=0;labelBackgroundColor=none;fontSize=26;fontColor=#000000;rotation=0;fontStyle=1" vertex="1" parent="MEUwHFOiCIK7g4VfZEpr-2">
          <mxGeometry width="230" height="30" as="geometry" />
        </mxCell>
        <mxCell id="CFaiManVZaAXfIuaHNWG-0" value="" style="endArrow=none;html=1;rounded=0;" parent="oUjT0-91Q0FkJpxIbzf2-1" edge="1">
          <mxGeometry width="50" height="50" relative="1" as="geometry">
            <mxPoint x="70" y="171" as="sourcePoint" />
            <mxPoint x="810" y="171" as="targetPoint" />
          </mxGeometry>
        </mxCell>
      </root>
    </mxGraphModel>
  </diagram>
</mxfile>
